#!OML:ASF F:\VICON\USERDATA\INSTALL\rory3\rory3.ASF
:FULLY-SPECIFIED
:DEGREES
1237
root 6.6807 17.5281 1.26946 366.7 -43.0849 363.033
lowerback 9.23648 -4.76771 -3.56374
upperback 3.17898 -6.62246 3.28193
thorax -1.04236 -3.38128 6.03129
lowerneck -10.3617 -3.284 -15.3532
upperneck 40.2175 -1.81476 -0.867117
head 16.5617 -3.56361 1.90122
rclavicle 3.20043e-014 1.11319e-014
rhumerus -36.2044 16.2373 -84.5709
rradius 60.4372
rwrist 14.4095
rhand -37.8362 5.97629
rfingers 7.12502
rthumb -10.8813 -23.7218
lclavicle 3.20043e-014 1.11319e-014
lhumerus -32.7126 -12.8645 86.064
lradius 51.6889
lwrist -7.62007
lhand -18.5241 22.6758
lfingers 7.12502
lthumb 7.76447 52.5132
rfemur -34.5521 9.94178 0.391309
rtibia 25.9731
rfoot 2.57044 1.52207
rtoes -3.8919
lfemur -21.8269 -11.21 -18.743
ltibia 32.6317
lfoot -16.3113 -15.5212
ltoes 0.594881
1238
root 6.5969 17.5158 1.23619 366.744 -41.7351 363.095
lowerback 9.40895 -4.83955 -3.44536
upperback 3.29467 -6.71036 3.35374
thorax -1.00979 -3.42916 6.05799
lowerneck -10.1781 -3.2652 -15.3994
upperneck 40.1279 -1.74024 -0.979735
head 16.4661 -3.5377 1.87781
rclavicle 7.71285e-014 -2.3059e-014
rhumerus -36.7936 17.2639 -84.8954
rradius 61.8343
rwrist 14.8784
rhand -38.2696 6.00763
rfingers 7.12502
rthumb -11.2992 -23.668
lclavicle 7.71285e-014 -2.3059e-014
lhumerus -32.8465 -13.7124 86.4036
lradius 52.2961
lwrist -7.7386
lhand -18.8345 22.3884
lfingers 7.12502
lthumb 7.46494 52.2366
rfemur -34.1778 9.67016 0.254899
rtibia 26.3959
rfoot 1.81339 1.82714
rtoes -4.2299
lfemur -22.0693 -11.9314 -18.3729
ltibia 32.7802
lfoot -16.238 -16.1262
ltoes 0.919311
1239
root 6.51002 17.5047 1.19633 366.952 -40.5856 363.065
lowerback 9.50553 -4.79771 -3.32008
upperback 3.38762 -6.6446 3.40155
thorax -0.982917 -3.3986 6.03775
lowerneck -9.98333 -3.26402 -15.232
upperneck 40.0469 -1.71023 -1.19579
head 16.3679 -3.51148 1.76566
rclavicle -4.94974e-014 -8.34896e-015
rhumerus -36.924 17.959 -85.37
rradius 62.5731
rwrist 15.5582
rhand -38.8331 6.28498
rfingers 7.12502
rthumb -11.8427 -23.3601
lclavicle -4.94974e-014 -8.34896e-015
lhumerus -33.0141 -14.6835 86.7018
lradius 52.9451
lwrist -7.82615
lhand -19.1701 22.3451
lfingers 7.12502
lthumb 7.14091 52.2046
rfemur -33.9867 9.60015 0.205179
rtibia 26.8423
rfoot 0.710929 1.9384
rtoes -6.72556
lfemur -22.443 -12.4157 -17.8815
ltibia 32.9657
lfoot -16.2392 -16.7923
ltoes 1.42318
1240
root 6.42194 17.4905 1.15032 367.284 -39.4353 362.968
lowerback 9.70338 -4.7148 -3.22069
upperback 3.43673 -6.52632 3.50203
thorax -1.05409 -3.33858 6.09634
lowerneck -9.97487 -3.3154 -15.0015
upperneck 40.0452 -1.74245 -1.38423
head 16.3607 -3.50223 1.64161
rclavicle 9.36276e-014 -3.57812e-014
rhumerus -37.0568 18.5124 -85.742
rradius 63.4079
rwrist 16.3306
rhand -39.1107 7.22144
rfingers 7.12502
rthumb -12.1104 -22.4081
lclavicle 9.36276e-014 -3.57812e-014
lhumerus -33.2004 -15.6363 87.0386
lradius 53.7289
lwrist -7.65209
lhand -19.1027 22.4913
lfingers 7.12502
lthumb 7.20601 52.3486
rfemur -33.8732 9.37565 0.333104
rtibia 27.2451
rfoot -0.419997 2.32909
rtoes -9.36673
lfemur -22.9695 -12.8976 -17.2949
ltibia 33.2077
lfoot -16.308 -17.3228
ltoes 1.6545
1241
root 6.33367 17.4829 1.1084 367.98 -38.3295 362.436
lowerback 9.78648 -4.61944 -2.72673
upperback 3.52016 -6.35247 3.72102
thorax -1.06405 -3.25187 6.04007
lowerneck -10.1247 -3.38782 -14.9226
upperneck 40.1498 -1.79942 -1.39248
head 16.4568 -3.50822 1.61489
rclavicle -1.65389e-013 6.75868e-014
rhumerus -37.2554 19.3422 -86.0001
rradius 64.6182
rwrist 16.9904
rhand -39.0607 7.67327
rfingers 7.12502
rthumb -12.0622 -21.9591
lclavicle -1.65389e-013 6.75868e-014
lhumerus -33.2841 -16.6452 87.4275
lradius 54.503
lwrist -7.35683
lhand -19.1746 22.4475
lfingers 7.12502
lthumb 7.13662 52.3072
rfemur -33.8814 9.14359 0.92194
rtibia 27.6527
rfoot -1.28098 2.97995
rtoes -10.9325
lfemur -23.5867 -13.3258 -16.3086
ltibia 33.41
lfoot -16.3214 -17.8423
ltoes 1.76699
